HIERARCHY
ROOT Hips
{
	OFFSET 0.000000 0.000000 0.000000
	CHANNELS 6 Xposition Yposition Zposition Xrotation Yrotation Zrotation
	JOINT LeftUpLeg_virtual
	{
		OFFSET 0.000000 0.000000 0.000000
		CHANNELS 3 Xrotation Yrotation Zrotation
		JOINT LeftUpLeg
		{
			OFFSET 11.394100 -6.187798 -0.413800
			CHANNELS 3 Xrotation Yrotation Zrotation
			JOINT LeftLeg
			{
				OFFSET 0.430247 -32.302673 3.732800
				CHANNELS 3 Xrotation Yrotation Zrotation
				JOINT LeftFoot
				{
					OFFSET -0.430247 -48.264931 -6.423300
					CHANNELS 3 Xrotation Yrotation Zrotation
					JOINT LeftToeBase
					{
						OFFSET 4.230900 -16.068199 23.438400
						CHANNELS 3 Xrotation Yrotation Zrotation
						JOINT LeftToe_End
						{
							OFFSET 4.510700 0.695400 19.974600
							CHANNELS 3 Xrotation Yrotation Zrotation
							End Site
							{
								OFFSET 0 0 0
							}
						}
					}
				}
			}
		}
	}
	JOINT RightUpLeg_virtual
	{
		OFFSET 0.000000 0.000000 0.000000
		CHANNELS 3 Xrotation Yrotation Zrotation
		JOINT RightUpLeg
		{
			OFFSET -11.333700 -6.187798 -0.413800
			CHANNELS 3 Xrotation Yrotation Zrotation
			JOINT RightLeg
			{
				OFFSET -0.430392 -32.302628 3.733000
				CHANNELS 3 Xrotation Yrotation Zrotation
				JOINT RightFoot
				{
					OFFSET 0.430392 -48.264973 -6.423500
					CHANNELS 3 Xrotation Yrotation Zrotation
					JOINT RightToeBase
					{
						OFFSET -4.230900 -16.068199 23.438400
						CHANNELS 3 Xrotation Yrotation Zrotation
						JOINT RightToe_End
						{
							OFFSET -4.510700 0.695400 19.974600
							CHANNELS 3 Xrotation Yrotation Zrotation
							End Site
							{
								OFFSET 0 0 0
							}
						}
					}
				}
			}
		}
	}
	JOINT Spine_virtual
	{
		OFFSET 0.000000 0.000000 0.000000
		CHANNELS 3 Xrotation Yrotation Zrotation
		JOINT Spine
		{
			OFFSET -0.002400 12.777504 0.315300
			CHANNELS 3 Xrotation Yrotation Zrotation
			JOINT Spine1
			{
				OFFSET -0.002067 5.816869 0.032633
				CHANNELS 3 Xrotation Yrotation Zrotation
				JOINT Spine1_split
				{
					OFFSET -0.002067 5.816869 0.032633
					CHANNELS 3 Xrotation Yrotation Zrotation
					JOINT Spine2
					{
						OFFSET -0.002067 5.816869 0.032633
						CHANNELS 3 Xrotation Yrotation Zrotation
						JOINT Neck_virtual
						{
							OFFSET 0.000000 0.000000 0.000000
							CHANNELS 3 Xrotation Yrotation Zrotation
							JOINT Neck
							{
								OFFSET -0.003700 21.199493 -0.826900
								CHANNELS 3 Xrotation Yrotation Zrotation
								JOINT Head
								{
									OFFSET 0.000000 20.442200 4.834800
									CHANNELS 3 Xrotation Yrotation Zrotation
									JOINT HeadTop_End
									{
										OFFSET 0.000000 34.668396 4.968400
										CHANNELS 3 Xrotation Yrotation Zrotation
										End Site
										{
											OFFSET 0 0 0
										}
									}
								}
							}
						}
						JOINT LeftShoulder_virtual
						{
							OFFSET 0.000000 0.000000 0.000000
							CHANNELS 3 Xrotation Yrotation Zrotation
							JOINT LeftShoulder
							{
								OFFSET 3.288150 8.794197 -1.372250
								CHANNELS 3 Xrotation Yrotation Zrotation
								JOINT LeftShoulder_split
								{
									OFFSET 3.288150 8.794197 -1.372250
									CHANNELS 3 Xrotation Yrotation Zrotation
									JOINT LeftArm
									{
										OFFSET 11.953299 -2.279007 -0.146200
										CHANNELS 3 Xrotation Yrotation Zrotation
										JOINT LeftForeArm
										{
											OFFSET 18.448900 0.000000 0.000000
											CHANNELS 3 Xrotation Yrotation Zrotation
											JOINT LeftHand
											{
												OFFSET 29.527798 0.000000 0.000000
												CHANNELS 3 Xrotation Yrotation Zrotation
												End Site
												{
													OFFSET 0 0 0
												}
											}
										}
									}
								}
							}
						}
						JOINT RightShoulder_virtual
						{
							OFFSET 0.000000 0.000000 0.000000
							CHANNELS 3 Xrotation Yrotation Zrotation
							JOINT RightShoulder
							{
								OFFSET -3.249400 8.794197 -1.372250
								CHANNELS 3 Xrotation Yrotation Zrotation
								JOINT RightShoulder_split
								{
									OFFSET -3.249400 8.794197 -1.372250
									CHANNELS 3 Xrotation Yrotation Zrotation
									JOINT RightArm
									{
										OFFSET -11.953299 -2.279007 -0.146200
										CHANNELS 3 Xrotation Yrotation Zrotation
										JOINT RightForeArm
										{
											OFFSET -18.448900 0.000000 0.000000
											CHANNELS 3 Xrotation Yrotation Zrotation
											JOINT RightHand
											{
												OFFSET -29.527802 0.000000 0.000000
												CHANNELS 3 Xrotation Yrotation Zrotation
												End Site
												{
													OFFSET 0 0 0
												}
											}
										}
									}
								}
							}
						}
					}
				}
			}
		}
	}
}
MOTION
Frames: 9
Frame Time: 0.03333333
3.303603 96.451729 -14.933830 0.000000 0.000000 0.000000 5.179397 -44.829192 1.978107 -41.970741 2.326493 14.694001 30.284447 -7.597707 3.343769 17.238634 -7.512552 -11.290356 -8.571177 -2.856727 -3.748137 0.000000 0.000000 0.000000 6.107738 -40.931247 1.885578 1.668163 -21.157884 -6.249669 20.256147 6.003980 -3.535000 -23.736379 -22.951809 21.070212 1.214655 5.482710 -20.633489 0.000000 0.000000 0.000000 1.783806 -36.472151 0.403275 1.361534 6.182078 0.059662 11.910673 6.861558 -0.853566 0.105112 -1.205118 0.026276 0.000000 0.000000 0.000000 14.459657 8.402430 -1.605252 -6.584022 5.518480 0.960462 -5.860131 -5.132678 9.328000 0.000000 0.000000 0.000000 9.783817 7.109703 -1.290436 2.475281 -3.010622 -1.456258 5.481118 1.404106 -8.877720 -25.307774 11.109690 -59.701270 -1.317134 -46.204563 -8.978136 0.000000 0.000000 0.000000 12.760988 7.198797 -0.231286 0.793534 -1.382221 4.175708 -4.738575 9.015209 -0.000370 0.871543 -25.189280 56.297643 -15.015607 36.232221 13.845505 0.000000 0.000000 0.000000 
3.361949 97.702286 -14.547848 0.000000 0.000000 0.000000 6.729773 -43.608060 2.319733 -41.172343 1.581956 14.179435 27.697307 -6.954841 3.751494 15.230338 -6.920819 -9.794275 -6.311882 -2.470721 -5.489513 0.000000 0.000000 0.000000 6.977974 -40.330515 2.082898 0.877368 -21.665860 -6.599375 17.137969 6.077518 -3.088498 -22.990319 -21.853559 19.735565 2.513234 5.188181 -19.694203 0.000000 0.000000 0.000000 3.599706 -36.570499 0.635084 0.564178 5.946556 0.497912 12.233585 6.696951 -0.858322 0.088160 -0.937176 0.031522 0.000000 0.000000 0.000000 14.401418 8.194307 -1.440399 -6.583758 5.440966 1.205451 -6.567001 -3.132882 9.125403 0.000000 0.000000 0.000000 10.136645 6.970158 -1.289326 2.617425 -2.735968 -1.340620 4.922175 2.798842 -8.488823 -24.130427 12.715826 -59.817021 -0.766499 -45.042786 -8.381304 0.000000 0.000000 0.000000 13.332661 7.162381 -0.404095 0.825414 -0.275422 4.400165 -6.656567 7.904964 -1.052321 -1.322339 -25.084239 55.428143 -15.632829 37.210836 13.950062 0.000000 0.000000 0.000000 
3.785062 99.096603 -14.392242 0.000000 0.000000 0.000000 8.509904 -42.074402 2.847886 -40.197986 1.518794 13.547199 23.520450 -6.071430 4.270219 13.531459 -5.940708 -10.589140 -2.368604 -2.402217 -5.750219 0.000000 0.000000 0.000000 8.308299 -39.784991 2.614132 -2.344662 -21.341307 -7.179816 15.948526 6.282043 -2.404496 -20.672829 -20.036148 15.623072 2.464744 4.792632 -17.198345 0.000000 0.000000 0.000000 6.148792 -36.438916 0.982962 0.110302 5.357841 0.956700 12.553010 6.269043 -0.954266 0.164741 -0.683445 0.038206 0.000000 0.000000 0.000000 14.403494 7.709918 -1.397427 -7.790478 5.716772 2.136548 -7.717960 -0.145020 9.063012 0.000000 0.000000 0.000000 10.588950 6.542578 -1.455811 2.775491 -2.222958 -0.458327 4.271533 3.666533 -7.319717 -22.886904 14.816320 -61.460658 0.364740 -44.356041 -7.106851 0.000000 0.000000 0.000000 13.902447 6.850208 -0.755980 1.209715 1.416870 4.455965 -7.374593 6.214635 -1.218308 -4.902143 -22.803551 54.113779 -16.422681 37.859390 13.592159 0.000000 0.000000 0.000000 
4.521206 99.992149 -14.391338 0.000000 0.000000 0.000000 10.347073 -41.047425 3.626592 -39.987766 2.001639 12.580226 19.495757 -5.380783 5.131997 13.139899 -5.063353 -13.620139 1.379690 -2.516406 -4.374264 0.000000 0.000000 0.000000 9.982713 -39.376440 3.488954 -7.477889 -20.437258 -7.535743 17.658242 6.702069 -1.719628 -17.906394 -17.915665 8.793274 0.744110 4.133398 -13.840565 0.000000 0.000000 0.000000 8.708172 -35.806703 1.519507 0.133043 4.463727 1.288298 12.893499 5.583701 -1.174595 0.200195 -0.400334 0.053857 0.000000 0.000000 0.000000 14.613000 6.999247 -1.562897 -10.117959 6.209629 3.725032 -9.274138 3.785219 9.286251 0.000000 0.000000 0.000000 11.200516 5.838713 -1.794738 2.960284 -1.612322 1.006974 3.922005 3.772529 -5.778159 -22.390349 16.311600 -64.016358 1.669046 -43.155813 -5.497341 0.000000 0.000000 0.000000 14.513978 6.274685 -1.236388 1.918769 3.477369 4.407504 -7.397989 4.387956 -0.753831 -8.977177 -18.559314 53.254633 -17.274547 38.324130 12.771417 0.000000 0.000000 0.000000 
5.361986 99.862015 -14.346207 0.000000 0.000000 0.000000 12.145495 -40.160928 4.718849 -41.354299 3.542343 11.361220 16.833674 -4.454746 6.335979 13.657055 -4.607752 -16.964347 3.415772 -2.788526 -1.760648 0.000000 0.000000 0.000000 11.568483 -39.120790 4.511403 -14.418751 -19.529901 -7.545038 23.039992 7.308401 -1.283896 -15.265905 -15.811164 0.470751 -2.346948 3.193510 -11.097286 0.000000 0.000000 0.000000 10.814871 -34.305882 2.178371 0.685271 3.418482 1.367039 13.340795 4.695686 -1.537998 0.274559 -0.189682 0.164293 0.000000 0.000000 0.000000 15.066427 6.110061 -1.951244 -13.390129 6.716886 5.780224 -11.267910 8.264163 9.974635 0.000000 0.000000 0.000000 12.014903 4.907867 -2.293532 3.171870 -1.083823 2.797210 3.760802 2.974826 -4.264491 -22.706428 16.614510 -66.482172 2.557969 -41.049150 -4.023377 0.000000 0.000000 0.000000 15.190185 5.463640 -1.789799 2.843150 5.611715 4.134018 -7.223518 3.150390 -0.029020 -13.056118 -13.301279 53.139510 -18.490736 39.397344 11.834806 0.000000 0.000000 0.000000 
6.047644 98.397919 -14.092861 0.000000 0.000000 0.000000 13.715734 -38.598642 5.952633 -45.049691 5.869375 9.897296 16.214920 -3.552763 7.865700 15.242532 -5.394668 -19.929365 2.780369 -3.269926 1.735840 0.000000 0.000000 0.000000 13.158289 -38.082891 5.746972 -22.265781 -19.060213 -7.246264 32.162374 8.430204 -1.259538 -12.989077 -13.667674 -7.473981 -6.681254 2.237273 -10.453786 0.000000 0.000000 0.000000 12.423751 -31.484269 2.838732 1.751627 2.384153 1.199670 14.017696 3.664876 -2.030693 0.309992 -0.118982 0.171852 0.000000 0.000000 0.000000 15.842781 5.104391 -2.510280 -17.239490 7.047708 8.030276 -13.436242 13.164014 11.191543 0.000000 0.000000 0.000000 13.129318 3.807335 -2.887327 3.374675 -0.692978 4.613631 3.876391 1.655121 -3.060217 -23.956243 15.667025 -67.803001 2.664496 -38.591248 -2.963033 0.000000 0.000000 0.000000 16.058381 4.453886 -2.378637 3.864236 7.593205 3.509961 -6.626273 2.936680 0.904893 -16.998440 -8.330192 53.586550 -20.407444 41.960864 11.278268 0.000000 0.000000 0.000000 
6.448413 95.755951 -14.026512 0.000000 0.000000 0.000000 14.905950 -35.658690 7.049189 -51.652687 7.951292 8.575301 17.851510 -3.889919 9.626981 18.289239 -8.140422 -23.689934 0.670276 -3.875558 5.291409 0.000000 0.000000 0.000000 15.089290 -35.079660 7.047351 -30.150955 -19.053151 -6.832097 43.760421 10.571173 -2.028755 -11.955034 -11.044405 -13.035703 -11.620333 1.808656 -12.755444 0.000000 0.000000 0.000000 13.795584 -27.290719 3.474372 3.253091 1.444782 0.792135 15.009523 2.469014 -2.629470 0.273850 -0.160256 0.144039 0.000000 0.000000 0.000000 16.950842 3.990179 -3.143472 -21.334600 7.139610 10.089941 -15.568352 17.888265 12.796384 0.000000 0.000000 0.000000 14.524204 2.577451 -3.534997 3.564829 -0.453112 6.017385 4.245325 0.087495 -1.664150 -26.015183 13.569781 -67.447292 1.965161 -37.198638 -2.354804 0.000000 0.000000 0.000000 17.225409 3.301203 -3.000413 4.899742 9.445226 2.571100 -5.497187 3.857301 1.858848 -21.044863 -4.884233 54.088333 -23.259067 46.301576 11.651066 0.000000 0.000000 0.000000 
6.524953 92.075645 -14.599052 0.000000 0.000000 0.000000 16.040776 -30.593401 7.711562 -60.443793 9.839474 7.454091 20.807423 -4.303362 11.097000 20.159568 -11.275688 -26.277753 -0.845307 -4.546050 8.261122 0.000000 0.000000 0.000000 17.170136 -29.997767 7.930523 -37.205089 -19.256083 -6.293295 55.871774 13.373944 -3.755893 -13.247115 -7.600121 -15.962167 -15.665210 2.477780 -17.779208 0.000000 0.000000 0.000000 15.263168 -22.173541 3.911626 4.984742 0.643981 0.344706 16.345761 1.145352 -3.249812 0.190671 -0.199169 0.109683 0.000000 0.000000 0.000000 18.335527 2.790882 -3.733801 -25.238690 7.064602 11.622084 -17.584455 22.435805 14.429249 0.000000 0.000000 0.000000 16.138706 1.333549 -4.151074 3.721891 -0.193649 6.780430 4.604974 -1.390404 -0.636727 -28.244408 10.529303 -65.124105 0.753324 -38.527007 -2.200499 0.000000 0.000000 0.000000 18.652121 2.087420 -3.599380 5.892645 11.249227 1.291581 -4.231043 4.836917 2.413849 -24.873285 -3.482441 53.916530 -27.303234 51.746814 13.482770 0.000000 0.000000 0.000000 
6.488243 87.593704 -15.432915 0.000000 0.000000 0.000000 17.550767 -23.592872 7.780062 -70.256624 10.950000 6.535687 25.234031 -3.926593 11.759853 19.818777 -13.429042 -26.755449 -0.248997 -5.032163 10.071899 0.000000 0.000000 0.000000 19.467477 -23.417433 8.078080 -43.021026 -19.565893 -5.523421 67.350064 15.902168 -6.234096 -17.260170 -3.989474 -17.137848 -17.075610 3.942236 -24.020361 0.000000 0.000000 0.000000 17.166813 -16.397978 4.082280 6.721778 0.029166 0.126047 17.874969 -0.220407 -3.784989 0.044930 -0.197048 0.072967 0.000000 0.000000 0.000000 19.837135 1.541494 -4.188712 -28.436659 7.016481 12.508703 -19.519540 26.733085 15.817173 0.000000 0.000000 0.000000 17.841856 0.143323 -4.691992 3.863669 0.052327 6.918327 5.352141 -2.969865 0.131970 -29.924370 6.943111 -60.771915 -0.579889 -43.064964 -2.542744 0.000000 0.000000 0.000000 20.264056 0.889170 -4.120809 6.849948 13.273953 -0.160233 -2.849830 5.185984 2.754321 -28.345220 -3.724374 52.446075 -32.359520 56.867595 16.783433 0.000000 0.000000 0.000000 
